<svg width="21" height="20" viewBox="0 0 21 20" fill="none" xmlns="http://www.w3.org/2000/svg">
<path d="M7.46094 6.6665V4.99984C7.46094 3.15889 8.95332 1.6665 10.7943 1.6665L15.7943 1.6665C17.6352 1.6665 19.1276 3.15889 19.1276 4.99984V9.99984C19.1276 11.8408 17.6352 13.3332 15.7943 13.3332H14.1276M7.46094 6.6665H5.79427C3.95332 6.6665 2.46094 8.15889 2.46094 9.99984V14.9998C2.46094 16.8408 3.95332 18.3332 5.79427 18.3332H10.7943C12.6352 18.3332 14.1276 16.8408 14.1276 14.9998V13.3332M7.46094 6.6665H10.7943C12.6352 6.6665 14.1276 8.15889 14.1276 9.99984V13.3332M5.79427 12.4998L7.25496 13.6684C7.60319 13.947 8.10902 13.902 8.40268 13.5664L10.7943 10.8332" stroke="#28303F" stroke-width="1.5" stroke-linecap="round" stroke-linejoin="round"/>
</svg>
