<svg width="16" height="16" viewBox="0 0 16 16" fill="none" xmlns="http://www.w3.org/2000/svg">
<path d="M13.6165 2.7145L12.7532 5.26321C12.7234 5.32216 12.7079 5.38729 12.7079 5.45334C12.7079 5.51939 12.7234 5.58453 12.7532 5.64347L14.3667 7.80165C14.413 7.86343 14.4411 7.93701 14.4476 8.01397C14.454 8.09095 14.4387 8.16818 14.4033 8.23683C14.3679 8.30548 14.3139 8.36277 14.2475 8.40213C14.181 8.44149 14.1048 8.46133 14.0275 8.45938H11.335C11.269 8.46132 11.2043 8.47802 11.1456 8.50826C11.0869 8.53849 11.0357 8.58149 10.9959 8.63409L9.49548 10.7923C9.45146 10.8554 9.39064 10.9048 9.31992 10.9351C9.24919 10.9653 9.17139 10.9751 9.09539 10.9633C9.01938 10.9515 8.94819 10.9187 8.88993 10.8685C8.83167 10.8182 8.78866 10.7527 8.76582 10.6792L7.96421 8.10996C7.94593 8.04646 7.91182 7.98863 7.86509 7.94189C7.81835 7.89516 7.76052 7.86105 7.69702 7.84276L5.12781 7.04115C5.05436 7.01829 4.9888 6.97529 4.93858 6.91703C4.88836 6.85877 4.85549 6.78758 4.84371 6.71157C4.83194 6.63556 4.84173 6.55777 4.87196 6.48704C4.9022 6.41631 4.95167 6.35548 5.01476 6.31148L7.214 4.75964C7.26661 4.71975 7.30961 4.66858 7.33984 4.60989C7.37008 4.55121 7.38678 4.48649 7.38871 4.4205V1.72791C7.39158 1.65719 7.41266 1.5884 7.44992 1.52822C7.48717 1.46804 7.53932 1.41849 7.60135 1.38438C7.66337 1.35027 7.73314 1.33275 7.80391 1.33352C7.87468 1.33429 7.94406 1.35332 8.00532 1.38877L10.1635 3.00226C10.2183 3.04032 10.2813 3.06482 10.3474 3.07375C10.4135 3.08269 10.4808 3.07579 10.5437 3.05365L13.0923 2.19037C13.1654 2.16469 13.2443 2.16018 13.3199 2.17736C13.3954 2.19456 13.4646 2.23275 13.5194 2.28752C13.5741 2.34231 13.6124 2.41146 13.6295 2.487C13.6467 2.56255 13.6422 2.64141 13.6165 2.7145Z" stroke="#28303F" stroke-width="1.5" stroke-linecap="round" stroke-linejoin="round"/>
<path d="M7.86072 7.9458L1.13965 14.667" stroke="#28303F" stroke-width="1.5" stroke-linecap="round" stroke-linejoin="round"/>
</svg>
