<svg width="24" height="24" viewBox="0 0 24 24" fill="none" xmlns="http://www.w3.org/2000/svg">
<path d="M14.5769 18.5C14.8104 18.5002 14.9995 18.6894 14.9998 18.9229C14.9998 18.9735 14.9914 19.0244 14.9724 19.0713C14.515 20.199 13.3563 21 11.9998 21C10.6433 21 9.48543 20.199 9.02808 19.0713C9.00903 19.0243 8.99976 18.9736 8.99976 18.9229C8.99999 18.6893 9.18995 18.5 9.42358 18.5H14.5769ZM11.9998 3C15.2288 3 17.9458 5.49082 18.3201 8.79395L18.6648 11.8389C18.7505 12.5952 19.0578 13.3068 19.5447 13.8799C20.578 15.0962 19.739 17 18.1697 17H5.82983C4.26061 16.9999 3.42244 15.0962 4.45581 13.8799C4.94254 13.3069 5.24898 12.5951 5.33472 11.8389L5.67944 8.79395C6.05366 5.49084 8.77077 3.00005 11.9998 3Z" fill="#2C538A"/>
</svg>
