<svg width="24" height="24" viewBox="0 0 24 24" fill="none" xmlns="http://www.w3.org/2000/svg">
<path d="M11.662 14.034C15.1274 13.867 18.1826 15.9314 19.4385 18.9623C19.0608 19.3376 18.654 19.6836 18.2223 19.9986C17.3343 17.2867 14.7226 15.3883 11.7342 15.5323C8.96336 15.6658 6.68268 17.5159 5.86844 20.0044C5.43747 19.6907 5.03067 19.3456 4.65225 18.9709C5.7996 16.1979 8.46586 14.188 11.662 14.034Z" fill="#93989E"/>
<path d="M12 4.75C13.7949 4.75 15.25 6.20507 15.25 8C15.25 9.79493 13.7949 11.25 12 11.25C10.2051 11.25 8.75 9.79493 8.75 8C8.75 6.20507 10.2051 4.75 12 4.75Z" stroke="#93989E" stroke-width="1.5"/>
</svg>
