<svg width="16" height="17" viewBox="0 0 16 17" fill="none" xmlns="http://www.w3.org/2000/svg">
<path d="M7.75732 4.52991C8.48535 4.52991 9.39795 4.07386 9.94141 3.4658C10.4336 2.91474 10.7925 2.14516 10.7925 1.37558C10.7925 1.27107 10.7822 1.16656 10.7617 1.08105C9.95166 1.10956 8.97754 1.58461 8.39307 2.22117C7.93164 2.70572 7.51123 3.4658 7.51123 4.24488C7.51123 4.35889 7.53174 4.47291 7.54199 4.51091C7.59326 4.52041 7.67529 4.52991 7.75732 4.52991ZM5.19385 16.0261C6.18848 16.0261 6.62939 15.4085 7.87012 15.4085C9.13135 15.4085 9.4082 16.0071 10.5156 16.0071C11.6025 16.0071 12.3306 15.076 13.0176 14.1639C13.7866 13.1188 14.1045 12.0927 14.125 12.0452C14.0532 12.0262 11.9717 11.2376 11.9717 9.02388C11.9717 7.10468 13.6123 6.24009 13.7046 6.17358C12.6177 4.72943 10.9668 4.69143 10.5156 4.69143C9.29541 4.69143 8.30078 5.3755 7.67529 5.3755C6.99854 5.3755 6.10645 4.72943 5.05029 4.72943C3.04053 4.72943 1 6.26859 1 9.17589C1 10.9811 1.75879 12.8908 2.69189 14.1259C3.4917 15.171 4.18896 16.0261 5.19385 16.0261Z" fill="black"/>
</svg>
