<svg width="14" height="15" viewBox="0 0 14 15" fill="none" xmlns="http://www.w3.org/2000/svg">
<path fill-rule="evenodd" clip-rule="evenodd" d="M13.72 7.97186C13.72 7.47549 13.6755 6.99822 13.5927 6.54004H7V9.24777H10.7673C10.605 10.1228 10.1118 10.8641 9.37045 11.3605V13.1169H11.6327C12.9564 11.8982 13.72 10.1037 13.72 7.97186Z" fill="#4285F4"/>
<path fill-rule="evenodd" clip-rule="evenodd" d="M6.9996 14.8126C8.8896 14.8126 10.4741 14.1858 11.6323 13.1167L9.37005 11.3603C8.74323 11.7803 7.94141 12.0285 6.9996 12.0285C5.17641 12.0285 3.63323 10.7971 3.08278 9.14258H0.744141V10.9562C1.89596 13.2439 4.26323 14.8126 6.9996 14.8126Z" fill="#34A853"/>
<path fill-rule="evenodd" clip-rule="evenodd" d="M3.08318 9.14258C2.94318 8.72258 2.86364 8.27395 2.86364 7.81258C2.86364 7.35122 2.94318 6.90258 3.08318 6.48258V4.66895H0.744545C0.270454 5.61395 0 6.68304 0 7.81258C0 8.94213 0.270454 10.0112 0.744545 10.9562L3.08318 9.14258Z" fill="#FBBC05"/>
<path fill-rule="evenodd" clip-rule="evenodd" d="M6.9996 3.59659C8.02732 3.59659 8.95005 3.94977 9.67551 4.64341L11.6832 2.63568C10.471 1.50614 8.88641 0.8125 6.9996 0.8125C4.26323 0.8125 1.89596 2.38114 0.744141 4.66886L3.08278 6.4825C3.63323 4.82795 5.17641 3.59659 6.9996 3.59659Z" fill="#EA4335"/>
</svg>
