<svg width="15" height="16" viewBox="0 0 15 16" fill="none" xmlns="http://www.w3.org/2000/svg">
<path d="M0.725586 0.279541C1.22165 -0.0592051 1.84264 -0.0959238 2.36914 0.201416L14.127 6.66235C14.6311 6.93901 14.9418 7.4661 14.9346 8.03931C14.9271 8.61292 14.6127 9.14191 14.1064 9.4104L2.30957 15.8079C1.75215 16.1049 1.09911 16.0558 0.600586 15.6711C0.54975 15.6316 0.49828 15.5806 0.453125 15.5354C0.0685382 15.1504 -0.089091 14.6052 0.0488281 14.0598L1.18555 9.44263C1.19128 9.41926 1.19786 9.39595 1.20508 9.37329H1.2041L1.36328 8.7356H8.88672C9.16284 8.7356 9.38668 8.5117 9.38672 8.2356C9.38672 7.95945 9.16286 7.7356 8.88672 7.7356H1.47949L1.22949 6.73364C1.21856 6.70187 1.20814 6.66921 1.2002 6.63599L1.0957 6.20044L1.05469 6.03442L1.05566 6.03345L0.102539 2.03638C-0.0382414 1.44401 0.220547 0.623972 0.725586 0.279541Z" fill="white"/>
</svg>
