<svg width="15" height="16" viewBox="0 0 15 16" fill="none" xmlns="http://www.w3.org/2000/svg">
<path d="M7.18505 4.73867H5.8058V2.95698C5.8058 2.72709 5.83454 2.48283 5.892 2.25293C4.9294 2.41098 4.19668 3.24435 4.19668 4.25015V4.73867H2.41514C1.2945 4.73867 0.375 5.64389 0.375 6.76463C0.375 7.325 0.604875 7.84226 0.99279 8.21584C1.40944 7.10947 2.47261 6.33357 3.70819 6.33357H7.17069C7.61607 6.33357 7.97525 5.97436 7.97525 5.52894C7.97525 5.08352 7.61607 4.73867 7.18505 4.73867Z" fill="#24B7BD"/>
<path d="M13.9092 7.76953C13.4926 8.8759 12.4294 9.6518 11.1938 9.6518H7.73132C7.28594 9.6518 6.92676 10.011 6.92676 10.4564C6.92676 10.9019 7.28594 11.2611 7.73132 11.2611H9.11057V13.0428C9.11057 13.2727 9.08184 13.5169 9.02437 13.7468C9.98697 13.5744 10.7197 12.741 10.7197 11.7496V11.2611H12.5012C13.6219 11.2611 14.5414 10.3559 14.5414 9.23511C14.5414 8.67474 14.3115 8.15748 13.9092 7.76953Z" fill="#F46C3F"/>
<path d="M5.79122 11.7506V8.27338C5.79122 7.82796 5.43204 7.46875 4.98666 7.46875C4.54128 7.46875 4.1821 7.82796 4.1821 8.27338V9.65276H2.41493C2.18506 9.65276 1.94081 9.62402 1.71094 9.56655C1.86898 10.5292 2.70227 11.262 3.70798 11.262H4.19646V13.0437C4.19646 14.1645 5.1016 15.084 6.22224 15.084C6.78256 15.084 7.29978 14.8541 7.67333 14.4518C6.56705 14.0495 5.79122 12.9719 5.79122 11.7506Z" fill="#D63C95"/>
<path d="M13.2053 6.43351C13.0472 5.47082 12.2139 4.73803 11.2082 4.73803H10.7197V2.95634C10.7197 1.8356 9.80025 0.916016 8.69397 0.916016C8.13365 0.916016 7.61643 1.14591 7.22852 1.53386C8.33479 1.95054 9.11062 3.01381 9.11062 4.2495V7.7123C9.11062 8.15772 9.4698 8.51693 9.91518 8.51693C10.3606 8.51693 10.7197 8.15772 10.7197 7.7123V6.33293H12.5013C12.7455 6.34729 12.9754 6.37603 13.2053 6.43351Z" fill="#EDB60C"/>
</svg>
