<svg width="7" height="8" viewBox="0 0 7 8" fill="none" xmlns="http://www.w3.org/2000/svg">
<path d="M4.17871 1.22656C4.45485 1.22656 4.67871 1.45042 4.67871 1.72656V3.04297H6C6.27614 3.04297 6.5 3.26683 6.5 3.54297V4.45605C6.5 4.7322 6.27614 4.95605 6 4.95605H4.67871V6.27246C4.67871 6.5486 4.45485 6.77246 4.17871 6.77246H3.27051C2.99437 6.77246 2.77051 6.5486 2.77051 6.27246V4.95605H1.44922C1.17308 4.95605 0.949219 4.7322 0.949219 4.45605V3.54297C0.949219 3.26683 1.17308 3.04297 1.44922 3.04297H2.77051V1.72656C2.77051 1.45042 2.99437 1.22656 3.27051 1.22656H4.17871Z" fill="white" stroke="#24B7BD" stroke-linejoin="round"/>
</svg>
