<svg width="35" height="12" viewBox="0 0 35 12" fill="none" xmlns="http://www.w3.org/2000/svg">
<path d="M11.7031 2.59375C12.6895 2.59382 13.4577 2.97349 14.0762 3.5918C14.6276 4.14323 14.845 4.92979 14.9238 5.48145H14.9229C15.0411 6.23281 14.4528 6.87984 13.7109 6.87988H10.6201C10.6192 6.87988 10.6173 6.88024 10.6143 6.88184C10.6117 6.88316 10.6087 6.88453 10.6064 6.88672C10.6905 7.10562 10.8059 7.27941 10.9629 7.42773H10.9619C11.2295 7.67758 11.586 7.81445 12.0801 7.81445C12.4782 7.81445 12.863 7.7566 13.2295 7.63574L13.3857 7.58008C14.045 7.32396 14.7703 7.79654 14.7705 8.52148V8.54004L14.7695 8.55762C14.7474 8.86624 14.5887 9.2005 14.251 9.39355L14.2422 9.39844C13.9511 9.5572 13.6613 9.68209 13.3506 9.76758L13.3516 9.76855C12.9136 9.8957 12.4121 9.94629 11.873 9.94629C11.0991 9.94627 10.439 9.78641 9.90039 9.44238C9.39031 9.11648 8.97845 8.67539 8.68262 8.12598C8.38389 7.57117 8.23343 6.94065 8.2334 6.24609C8.2334 5.21451 8.54876 4.31866 9.19629 3.62793C9.84862 2.93215 10.7044 2.59375 11.7031 2.59375ZM11.8906 4.6709C11.5806 4.62063 11.2438 4.70353 10.9834 4.8916C10.9579 4.91268 10.9345 4.93455 10.9111 4.95508C11.4311 4.96845 11.9463 4.98095 12.4551 4.9707C12.4493 4.96512 12.4444 4.95865 12.4385 4.95312C12.2692 4.79502 12.067 4.69728 11.8965 4.67188L11.8906 4.6709Z" fill="white" stroke="#24B7BD"/>
<path d="M16.2607 2.90625C16.651 2.6126 17.2925 2.54461 17.7412 3.02246C17.7438 3.02483 17.7468 3.02616 17.748 3.02734C17.7577 3.03663 17.7661 3.04613 17.7715 3.05176C17.7838 3.06449 17.7988 3.0807 17.8145 3.09766C17.8465 3.13236 17.8907 3.18018 17.9414 3.23633C18.0433 3.34917 18.1774 3.49926 18.3105 3.64844C18.4439 3.79784 18.5772 3.94762 18.6768 4.05957C18.7264 4.11535 18.7679 4.16171 18.7969 4.19434C18.8114 4.21067 18.8233 4.22366 18.8311 4.23242C18.8349 4.2367 18.8378 4.23994 18.8398 4.24219C18.8408 4.24329 18.8413 4.24454 18.8418 4.24512L18.8428 4.24609H18.8418C19.0644 4.49445 19.1291 4.7979 19.0791 5.07617C19.0317 5.33981 18.8873 5.56686 18.7139 5.72949C18.5406 5.89198 18.3021 6.02372 18.0303 6.0498C17.7405 6.07751 17.4423 5.97946 17.2139 5.7334L17.2051 5.72461L17.5801 5.39355L17.2051 5.72363C16.87 5.34386 16.4297 4.89828 16.0781 4.44629C15.875 4.18489 15.7899 3.88153 15.8408 3.58203C15.89 3.29291 16.0573 3.05953 16.2607 2.90625Z" fill="white" stroke="#24B7BD"/>
<path d="M21.1729 2.69727C21.3842 2.67442 21.6366 2.69485 21.8584 2.79785L21.9512 2.84766L21.9619 2.85449C22.4407 3.1592 22.6582 3.86899 22.2041 4.38184L22.2051 4.38281L20.6221 6.20703L20.627 6.21191L20.6416 6.22754L22.3701 8.15039L22.375 8.15723C22.8331 8.6841 22.6539 9.5501 21.9434 9.7832L21.9443 9.78418C21.9416 9.78512 21.9382 9.78521 21.9355 9.78613C21.9326 9.78707 21.9297 9.78912 21.9268 9.79004L21.9258 9.78906C21.7305 9.85407 21.5087 9.87511 21.2979 9.8457C21.0831 9.81569 20.8279 9.72648 20.6348 9.52051L20.6299 9.51465L19.1699 7.9082L19.167 7.90527C19.1669 7.90525 19.165 7.90521 19.1621 7.90527C19.1595 7.90538 19.1574 7.90574 19.1562 7.90625H19.1553L19.1514 7.91113L17.7891 9.49316L17.7852 9.49609C17.3483 9.99358 16.6746 9.89849 16.2939 9.67285C16.0883 9.55091 15.8799 9.34672 15.7988 9.05859C15.7104 8.74376 15.8016 8.42731 16.0205 8.17188V8.1709L17.9678 5.90723L18.7578 4.9834L18.7598 4.98145L20.4277 3.05762V3.05859C20.6345 2.81582 20.9389 2.72257 21.1729 2.69727Z" fill="white" stroke="#24B7BD"/>
<path d="M25.5273 0.695312C26.0833 0.695312 26.5388 1.1502 26.5391 1.70605V8.82617C26.539 9.3822 26.0834 9.83691 25.5273 9.83691H25.2959C24.74 9.8367 24.2852 9.38207 24.2852 8.82617V1.70605C24.2854 1.15033 24.7401 0.695527 25.2959 0.695312H25.5273Z" fill="white" stroke="#24B7BD"/>
<path d="M32.4648 2.71191C32.7227 2.6511 32.9899 2.67231 33.208 2.7334C33.8104 2.90227 34.1207 3.58869 33.8525 4.14941L33.8506 4.15234L30.6504 10.7246L30.6475 10.7295L30.6465 10.7285C30.3684 11.2844 29.7609 11.3591 29.3652 11.2734C29.1103 11.2187 28.8318 11.0819 28.6465 10.8408C28.4378 10.5691 28.381 10.2029 28.5605 9.84375L29.4346 8.04688L29.4365 8.04199C29.4379 8.0391 29.4394 8.03705 29.4395 8.03516C29.4395 8.03316 29.4381 8.03049 29.4365 8.02734V8.02637L27.4561 4.17383L27.4531 4.16895C27.1129 3.48797 27.6232 2.70312 28.3633 2.70312C28.5565 2.70314 28.7837 2.71397 29.0049 2.80566C29.1834 2.87973 29.3268 2.99245 29.4492 3.13379L29.5654 3.2832L29.5723 3.29492C29.6969 3.48559 29.9374 3.95961 30.1514 4.39941C30.3568 4.82177 30.5615 5.26517 30.6572 5.49316L30.6611 5.5L30.6631 5.50098C30.665 5.5021 30.6698 5.50396 30.6758 5.50391C30.6785 5.50388 30.6804 5.50326 30.6816 5.50293C30.6822 5.50211 30.6833 5.50068 30.6846 5.49805L30.6865 5.49512L31.7451 3.26855L31.749 3.25977C31.9109 2.93594 32.1996 2.77452 32.4648 2.71191Z" fill="white" stroke="#24B7BD"/>
<path d="M4.24316 2.39844C5.2147 2.39852 6.36818 2.65638 6.96582 3.72363C7.40962 4.51106 7.48045 5.43712 7.48047 6.19629V8.83789C7.4803 9.39379 7.02569 9.84863 6.46973 9.84863H6.23828C5.68245 9.84847 5.22771 9.39369 5.22754 8.83789V6.63477C5.22754 6.15135 5.24747 5.65439 5.11035 5.25879C5.04764 5.07794 4.9615 4.95316 4.84961 4.87012C4.73958 4.78855 4.55857 4.71296 4.24316 4.71289C4.00104 4.71289 3.85063 4.78188 3.74609 4.86914C3.6331 4.96357 3.53709 5.10982 3.46289 5.3125C3.30969 5.73101 3.29492 6.25458 3.29492 6.63477V8.83789C3.29476 9.39379 2.83917 9.84863 2.2832 9.84863H2.05176C1.49597 9.84842 1.04118 9.39366 1.04102 8.83789V6.20898C1.04102 5.32602 1.08877 4.25033 1.90527 3.43359C2.22375 3.1151 2.53905 2.84552 2.9209 2.66309C3.31017 2.47716 3.73255 2.39844 4.24316 2.39844Z" fill="white" stroke="#24B7BD"/>
</svg>
